<svg width="375" height="812" viewBox="0 0 375 812" fill="none" xmlns="http://www.w3.org/2000/svg">
<g clip-path="url(#clip0_333_1508)">
<rect width="375" height="812" fill="#E5EAD7"/>
<path d="M-17.7751 133.567C-23.7055 131.128 -27.2316 123.922 -25.6021 117.664C-23.9459 111.406 -17.3209 106.963 -10.9899 107.857C-7.73081 108.318 -4.79233 109.97 -1.93399 111.596C1.69904 113.654 5.33208 115.741 8.96511 117.799C-0.0907593 114.576 -4.47177 103.251 -2.49497 93.7153C-1.05244 86.8612 3.56899 80.3052 10.2474 78.5171C15.6969 77.0542 21.4937 78.8964 26.4891 81.5243C42.0097 89.5975 52.882 104.471 62.1249 119.479C59.2398 115.442 62.4455 109.239 67.1203 107.613C71.7952 106.015 76.9241 107.694 81.3319 109.916C91.1624 114.901 99.3367 124.437 105 134L-17.7751 133.567Z" fill="#F2F5EB"/>
<path d="M382.452 158.45C390.057 155.359 394.58 146.223 392.49 138.288C390.366 130.354 381.87 124.721 373.75 125.854C369.571 126.438 365.802 128.533 362.137 130.594C357.478 133.205 352.818 135.85 348.159 138.46C359.773 134.373 365.391 120.015 362.856 107.925C361.006 99.2348 355.079 90.9226 346.515 88.6557C339.526 86.8009 332.092 89.1365 325.686 92.4683C305.781 102.704 291.838 121.561 279.985 140.59C283.685 135.472 279.574 127.606 273.579 125.545C267.583 123.519 261.006 125.648 255.353 128.465C242.746 134.785 232.263 146.875 225 159L382.452 158.45Z" fill="#F2F5EB"/>
<path d="M-34.0657 375.211C-41.2164 372.326 -45.5027 363.713 -43.5119 356.258C-41.5211 348.802 -33.4969 343.5 -25.8587 344.557C-21.9381 345.105 -18.3627 347.076 -14.9093 349.026C-10.5214 351.484 -6.13351 353.942 -1.74561 356.4C-12.6747 352.54 -17.9768 339.072 -15.5797 327.716C-13.853 319.55 -8.2462 311.749 -0.181404 309.616C6.40044 307.869 13.3886 310.083 19.4626 313.191C38.2127 322.82 51.3561 340.514 62.5086 358.391C59.0146 353.576 62.8946 346.182 68.542 344.272C74.1691 342.363 80.3853 344.353 85.7076 347.015C97.5712 352.967 107.464 364.302 114.29 375.698L-34.0657 375.211Z" fill="#F2F5EB"/>
<path d="M462.436 322.232C473.639 317.691 480.354 304.132 477.235 292.395C474.116 280.659 461.544 272.312 449.577 273.975C443.435 274.838 437.833 277.94 432.422 281.01C425.548 284.88 418.673 288.75 411.798 292.619C428.921 286.543 437.228 265.34 433.473 247.464C430.767 234.608 421.983 222.327 409.347 218.97C399.035 216.219 388.087 219.705 378.57 224.598C349.194 239.756 328.601 267.611 311.128 295.753C316.602 288.174 310.523 276.533 301.675 273.527C292.859 270.521 283.12 273.655 274.781 277.844C256.194 287.215 240.694 305.059 230 323L462.436 322.232Z" fill="#F2F5EB"/>
<path d="M217.008 138.953C219.436 147.578 229.3 151.665 237.11 147.277C247.124 141.636 259.216 149.96 257.588 161.342C256.312 170.218 263.647 177.965 272.559 177.112C284 176.034 291.66 188.57 285.552 198.298C280.77 205.895 284.35 215.948 292.837 218.806C303.702 222.492 305.654 237.059 296.091 243.452C288.656 248.441 287.83 259.071 294.414 265.164C302.85 272.961 298.695 287.051 287.379 289.007C278.567 290.536 273.485 299.913 277.015 308.162C281.571 318.717 272.033 329.899 260.918 327.091C252.231 324.884 243.795 331.403 243.669 340.353C243.544 351.861 230.301 358.204 221.264 351.084C214.229 345.543 203.865 348.05 200.135 356.199C195.353 366.654 180.658 367.055 175.301 356.876C171.12 348.953 160.631 346.997 153.921 352.939C145.31 360.536 131.741 354.92 130.965 343.437C130.364 334.487 121.577 328.444 113.04 331.127C102.075 334.562 91.9616 323.881 95.942 313.101C99.0463 304.677 93.4636 295.576 84.5514 294.548C73.1608 293.219 68.2291 279.354 76.24 271.106C82.4736 264.687 81.0717 254.082 73.3861 249.519C63.5226 243.652 64.6492 228.985 75.3138 224.723C83.6252 221.389 86.6543 211.16 81.4722 203.839C74.8381 194.462 81.8227 181.525 93.2884 181.976C102.226 182.327 109.16 174.204 107.383 165.404C105.13 154.122 116.771 145.171 127.06 150.236C135.096 154.197 144.709 149.584 146.687 140.834C149.215 129.627 163.485 126.167 170.82 134.992C176.552 141.887 187.217 141.586 192.549 134.39C199.434 125.214 213.879 127.897 217.008 138.953Z" fill="#24323D"/>
<path d="M358.206 409.528C348.819 376.634 319.904 353.167 285.832 350.76C207.851 345.219 74.6931 343.214 46.4294 373.45C37.1917 383.328 56.0426 365.377 46.4294 373.45C3.19516 409.729 -3.53906 497.73 -3.53906 497.73L97.4493 497.028L378.71 497.83C380.262 489.807 368.621 446.082 358.206 409.528Z" fill="#9BB068"/>
<path d="M226.67 314.226L219.71 292.063C225.543 293.442 231.952 291.988 236.683 287.6C244.269 280.58 244.744 268.747 237.735 261.15C230.725 253.553 218.909 253.077 211.324 260.097C210.873 260.523 210.448 260.949 210.047 261.401L201.836 235.276C200.809 232.042 197.605 230.036 194.25 230.537C177.628 233.02 131.214 244.678 127.834 297.328C127.584 301.315 130.713 304.724 134.719 304.724L155.197 304.699L153.57 318.94C178.253 323.678 202.837 321.096 226.67 314.226Z" fill="#CFD9B5"/>
<path d="M226.668 314.227C202.86 321.121 178.252 323.679 153.593 318.94L148.736 361.487C146.283 382.923 158.75 403.632 179.153 410.577C180.104 410.903 181.081 411.203 182.057 411.504C217.405 421.784 249.775 387.762 238.709 352.586L226.668 314.227Z" fill="#9BB068"/>
<path d="M163.256 246.786C153.142 252.026 143.004 257.241 132.89 262.48C131.563 263.157 131.438 265.088 132.414 266.091C135.418 269.15 138.397 272.183 141.401 275.242C143.479 277.348 146.709 274.114 144.631 272.008C141.627 268.949 138.648 265.915 135.643 262.857C135.493 264.06 135.343 265.263 135.168 266.467C145.282 261.227 155.421 256.012 165.534 250.772C168.188 249.393 165.86 245.432 163.256 246.786Z" fill="#24323D"/>
<path d="M160.382 282.282C160.657 284.639 157.904 286.795 155.751 285.466C153.222 283.937 150.919 287.898 153.447 289.427C158.329 292.411 165.639 288.149 164.988 282.282C164.838 281.053 164.037 280 162.685 280C161.559 279.975 160.257 281.028 160.382 282.282Z" fill="#24323D"/>
<path d="M227.524 269.422C223.593 270.751 219.663 272.08 215.733 273.409C212.954 274.361 214.155 278.774 216.959 277.821C220.89 276.492 224.82 275.164 228.75 273.835C231.529 272.907 230.328 268.47 227.524 269.422Z" fill="#24323D"/>
<path d="M172.193 260.496C176.574 270.399 190.242 272.932 198.278 266.062C200.532 264.132 197.277 260.897 195.049 262.828C189.041 267.968 179.277 265.21 176.173 258.19C174.971 255.482 171.016 257.814 172.193 260.496Z" fill="#24323D"/>
<path d="M175.954 262.327C174.276 264.032 172.574 265.712 170.897 267.417C168.819 269.498 172.048 272.757 174.126 270.651C175.803 268.946 177.506 267.266 179.183 265.562C181.286 263.481 178.057 260.246 175.954 262.327Z" fill="#24323D"/>
<path d="M183.188 268.944C183.213 270.649 183.238 272.328 183.263 274.033C183.288 276.992 187.894 276.992 187.844 274.033C187.819 272.328 187.794 270.649 187.769 268.944C187.719 266.01 183.138 265.985 183.188 268.944Z" fill="#24323D"/>
<path d="M192.2 268.895C192.751 270.399 193.277 271.928 193.827 273.432C194.253 274.586 195.38 275.388 196.656 275.037C197.783 274.736 198.684 273.382 198.259 272.204C197.708 270.7 197.182 269.17 196.631 267.666C196.206 266.488 195.079 265.71 193.802 266.061C192.676 266.387 191.8 267.741 192.2 268.895Z" fill="#24323D"/>
<path d="M207.969 437.332C207.969 441.72 204.414 445.305 200.008 445.305C195.627 445.305 192.047 441.745 192.047 437.332C192.047 432.945 195.602 429.359 200.008 429.359C204.414 429.359 207.969 432.92 207.969 437.332Z" fill="#24323D"/>
<path d="M92.7646 412.155C67.2546 425.267 41.7447 438.38 16.2097 451.492C10.3517 454.501 4.49365 457.51 -1.36438 460.518C-10.9775 465.482 -18.7882 472.026 -23.019 482.305C-26.7742 491.406 -27.2248 503.967 -22.969 513.043C-18.5629 522.445 -11.278 531.07 -1.2392 534.73C8.29886 538.19 20.065 539.494 29.4528 534.68C45.4498 526.456 61.4717 518.233 77.4686 509.984C100.475 498.151 123.482 486.342 146.488 474.508C133.32 451.342 120.252 428.101 107.91 404.383C102.853 406.99 97.7965 409.573 92.7646 412.155Z" fill="#9BB068"/>
<path d="M171.57 461.623C181.183 456.684 188.994 450.14 193.225 439.861C196.98 430.76 197.43 418.199 193.175 409.123C188.769 399.721 181.484 391.097 171.445 387.436C161.907 383.977 170.243 370.212 160.855 375.051C149.89 380.692 118.848 398.769 107.883 404.385C120.225 428.128 133.268 451.369 146.461 474.51C148.964 473.231 151.493 471.928 153.996 470.649C159.854 467.64 165.712 464.632 171.57 461.623Z" fill="#CFD9B5"/>
<path d="M175.878 405.564C178.907 385.231 181.936 364.873 184.966 344.54C185.842 338.623 181.586 332.105 175.427 331.428C169.294 330.751 163.286 334.637 162.335 340.98C159.305 361.313 156.276 381.671 153.247 402.004C152.371 407.921 156.627 414.44 162.785 415.117C168.919 415.819 174.927 411.908 175.878 405.564Z" fill="#CFD9B5"/>
<path d="M176.978 405.869C179.256 390.501 181.559 375.107 183.837 359.738C185.189 350.612 190.045 336.221 178.755 331.181C174.775 329.401 169.868 330.128 166.338 332.585C161.957 335.619 161.281 340.182 160.555 345.146C158.277 360.54 155.974 375.909 153.696 391.303C153.47 392.757 155.698 393.359 155.899 391.905C157.751 379.494 159.579 367.084 161.431 354.673C161.882 351.69 162.307 348.706 162.758 345.748C163.159 343.065 163.259 340.132 164.636 337.7C167.465 332.736 174.574 330.855 179.331 334.115C185.014 338.026 183.862 344.269 182.986 350.16C182.11 356.102 181.208 362.069 180.332 368.011C178.48 380.422 176.652 392.807 174.8 405.218C174.549 406.722 176.752 407.324 176.978 405.869Z" fill="#24323D"/>
<path d="M181.36 444.153C186.542 410.983 191.725 377.789 196.907 344.619C197.833 338.702 193.627 332.158 187.444 331.431C181.31 330.704 175.277 334.565 174.276 340.908C169.094 374.078 163.911 407.273 158.729 440.443C157.803 446.359 162.009 452.903 168.192 453.63C174.326 454.357 180.359 450.496 181.36 444.153Z" fill="#CFD9B5"/>
<path d="M188.272 411.382C190.175 398.546 192.103 385.709 194.005 372.897C194.956 366.479 195.908 360.061 196.859 353.642C197.535 349.029 199.162 343.839 197.785 339.201C195.632 331.93 187.997 328.32 181.037 331.103C177.533 332.507 174.754 335.415 173.677 339.051C171.95 344.892 171.7 351.561 170.798 357.604C168.62 372.17 166.467 386.712 164.289 401.278C164.064 402.733 166.292 403.334 166.492 401.88C168.545 388.066 170.598 374.251 172.651 360.437C173.602 354.043 174.228 347.525 175.505 341.182C176.731 335.089 182.965 330.752 189.174 332.858C196.609 335.39 196.108 343.062 195.157 349.305C194.155 355.974 193.179 362.643 192.178 369.287C190.125 383.101 188.072 396.916 186.019 410.755C185.844 412.21 188.047 412.836 188.272 411.382Z" fill="#24323D"/>
<path d="M182.639 352.918C178.959 377.638 175.279 402.359 171.599 427.079C170.722 432.996 174.978 439.515 181.137 440.192C187.27 440.869 193.278 436.983 194.23 430.639C197.91 405.919 201.59 381.198 205.27 356.478C206.146 350.561 201.89 344.042 195.732 343.365C189.598 342.688 183.59 346.574 182.639 352.918Z" fill="#CFD9B5"/>
<path d="M193.403 443.95C197.484 416.596 201.539 389.243 205.62 361.89C206.396 356.751 207.322 351.937 204.143 347.374C201.239 343.212 196.357 341.382 191.401 342.46C179.835 344.967 180.561 359.132 179.184 368.409C177.131 382.273 175.053 396.138 173 410.028C172.775 411.482 175.003 412.084 175.203 410.629C176.73 400.3 178.283 389.97 179.81 379.641C180.636 374 181.487 368.359 182.313 362.743C182.989 358.18 182.864 351.837 185.993 348.201C190.7 342.761 199.437 343.387 202.916 349.806C205.645 354.87 203.292 361.865 202.491 367.23C200.663 379.516 198.836 391.826 197.008 404.111C195.056 417.173 193.128 430.26 191.175 443.323C190.975 444.777 193.178 445.404 193.403 443.95Z" fill="#24323D"/>
<path d="M293.239 413.336C318.749 426.449 344.259 439.561 369.794 452.674C375.652 455.682 381.51 458.691 387.368 461.699C396.981 466.639 404.792 473.182 409.023 483.462C412.778 492.563 413.229 505.123 408.973 514.199C404.567 523.601 397.282 532.251 387.243 535.886C377.705 539.346 365.939 540.65 356.551 535.836C340.554 527.613 324.532 519.389 308.535 511.141C285.529 499.307 262.522 487.498 239.516 475.664C252.684 452.498 265.752 429.257 278.093 405.539C283.15 408.147 288.207 410.754 293.239 413.336Z" fill="#9BB068"/>
<path d="M214.433 462.779C204.819 457.84 197.009 451.297 192.778 441.017C189.023 431.916 188.572 419.355 192.828 410.28C197.234 400.878 204.519 392.228 214.558 388.593C224.096 385.133 215.759 371.368 225.147 376.207C236.112 381.848 267.155 399.925 278.12 405.566C265.778 429.309 252.735 452.55 239.542 475.691C237.038 474.413 234.51 473.109 232.007 471.83C226.149 468.822 220.291 465.813 214.433 462.779Z" fill="#CFD9B5"/>
<path d="M210.131 406.744C207.102 386.411 204.073 366.053 201.044 345.72C200.168 339.803 204.424 333.284 210.582 332.607C216.715 331.931 222.724 335.817 223.675 342.16C226.704 362.493 229.733 382.851 232.762 403.184C233.639 409.101 229.383 415.619 223.224 416.296C217.091 416.973 211.083 413.087 210.131 406.744Z" fill="#CFD9B5"/>
<path d="M211.231 406.444C209.379 394.034 207.551 381.648 205.699 369.238C204.823 363.296 203.921 357.329 203.045 351.387C202.169 345.495 200.992 339.252 206.7 335.341C211.457 332.057 218.541 333.962 221.395 338.926C222.772 341.308 222.872 344.292 223.273 346.974C223.723 349.958 224.149 352.941 224.6 355.9C226.452 368.31 228.28 380.721 230.132 393.131C230.358 394.585 232.561 393.959 232.335 392.529C230.057 377.136 227.754 361.767 225.476 346.373C224.725 341.408 224.074 336.845 219.693 333.812C216.163 331.355 211.256 330.628 207.276 332.408C195.96 337.447 200.842 351.813 202.194 360.964C204.472 376.333 206.775 391.727 209.053 407.096C209.229 408.5 211.457 407.873 211.231 406.444Z" fill="#24323D"/>
<path d="M204.643 445.333C199.461 412.163 194.279 378.968 189.097 345.799C188.17 339.882 192.376 333.338 198.56 332.611C204.693 331.884 210.726 335.745 211.728 342.088C216.91 375.258 222.092 408.452 227.274 441.622C228.2 447.539 223.994 454.083 217.811 454.81C211.677 455.537 205.644 451.676 204.643 445.333Z" fill="#CFD9B5"/>
<path d="M199.942 411.937C197.89 398.122 195.837 384.308 193.784 370.468C192.833 364.05 191.881 357.631 190.93 351.213C189.979 344.795 189.052 336.672 196.813 334.039C202.646 332.058 209.08 335.945 210.382 341.836C211.784 348.305 212.384 355.049 213.336 361.593C215.389 375.407 217.441 389.222 219.494 403.036C219.719 404.49 221.922 403.863 221.697 402.434C219.795 389.598 217.867 376.761 215.964 363.949C215.013 357.531 214.062 351.113 213.11 344.694C212.485 340.558 211.683 336.972 208.304 334.215C202.396 329.376 193.433 330.679 189.503 337.323C187.15 341.31 187.701 345.221 188.351 349.583C189.303 356.002 190.254 362.42 191.205 368.838C193.383 383.405 195.536 397.947 197.714 412.513C197.94 414.017 200.168 413.391 199.942 411.937Z" fill="#24323D"/>
<path d="M203.37 354.097C207.05 378.818 210.73 403.538 214.41 428.259C215.287 434.176 211.031 440.694 204.872 441.371C198.739 442.048 192.731 438.162 191.779 431.819C188.099 407.099 184.419 382.378 180.739 357.657C179.863 351.74 184.119 345.222 190.277 344.545C196.411 343.868 202.419 347.754 203.37 354.097Z" fill="#CFD9B5"/>
<path d="M194.808 444.501C191.253 420.658 187.698 396.79 184.169 372.947C183.367 367.507 181.79 361.64 181.79 356.149C181.765 348.803 188.875 343.739 195.759 346.371C201.818 348.703 202.293 354.419 203.12 360.01C203.921 365.426 204.722 370.841 205.548 376.257C207.3 388.09 209.078 399.924 210.83 411.783C211.055 413.237 213.258 412.61 213.033 411.181C211.206 398.972 209.403 386.762 207.576 374.527C206.699 368.585 205.798 362.643 204.922 356.701C204.146 351.561 202.644 347.123 197.687 344.691C187.548 339.727 178.361 348.678 179.788 358.932C181.665 372.32 183.768 385.658 185.746 399.022C188.024 414.391 190.327 429.734 192.605 445.103C192.805 446.582 195.033 445.956 194.808 444.501Z" fill="#24323D"/>
<path d="M5.6487 458.242C35.039 442.547 64.4543 426.852 93.8445 411.157C98.0002 408.926 102.156 406.72 106.312 404.488C107.613 403.786 106.462 401.806 105.16 402.508C75.7698 418.202 46.3545 433.897 16.9642 449.592C12.8085 451.823 8.65281 454.03 4.49712 456.261C3.1703 456.963 4.34691 458.944 5.6487 458.242Z" fill="#24323D"/>
<path d="M365.284 449.089C339.975 435.927 314.69 422.739 289.38 409.577C285.851 407.746 282.321 405.891 278.766 404.061C277.464 403.384 276.287 405.365 277.614 406.041C302.924 419.204 328.209 432.392 353.518 445.554C357.048 447.385 360.578 449.24 364.133 451.07C365.435 451.747 366.586 449.766 365.284 449.089Z" fill="#24323D"/>
<path d="M22.8159 435.724C28.2233 437.203 33.6307 438.657 39.0632 440.136C40.4901 440.512 41.091 438.306 39.664 437.93C34.2566 436.451 28.8492 434.996 23.4167 433.517C21.9898 433.116 21.389 435.322 22.8159 435.724Z" fill="#24323D"/>
<path d="M342.282 438.131C346.612 436.777 350.843 435.147 354.974 433.242C356.301 432.64 355.149 430.659 353.822 431.261C349.867 433.066 345.811 434.62 341.681 435.924C340.279 436.35 340.88 438.582 342.282 438.131Z" fill="#24323D"/>
<path d="M292.961 224.876C297.166 234.027 308.732 233.526 315.767 228.211C323.302 222.495 330.888 210.235 327.583 200.482C325.13 193.236 314.065 188.848 309.884 197.222C308.081 200.808 309.508 205.095 312.287 207.778C315.842 211.187 321.275 211.764 325.956 211.914C337.046 212.29 350.014 207.301 351.716 194.891C352.117 192.007 347.711 190.754 347.31 193.662C346.058 202.663 337.547 206.925 329.21 207.301C325.255 207.477 320.348 207.502 316.818 205.421C314.891 204.293 313.289 202.212 313.839 199.93C314.39 197.573 317.119 196.796 319.222 197.473C323.528 198.877 324.153 204.293 323.427 208.053C322.551 212.566 320.023 217.029 317.119 220.539C312.387 226.23 301.247 231.947 296.941 222.52C295.664 219.887 291.734 222.219 292.961 224.876Z" fill="#24323D"/>
<path d="M46.0526 163.753C45.2265 174.584 54.2388 183.96 65.1538 182.882C75.8184 181.804 83.0784 171.299 80.3496 160.895C79.3482 157.109 76.1689 152.646 71.8129 155.103C67.457 157.56 66.5307 164.104 67.1315 168.541C68.8088 180.827 80.2244 187.119 91.0393 190.329C93.8681 191.181 95.0698 186.743 92.2659 185.916C85.5067 183.91 78.2718 180.952 74.2663 174.809C72.2635 171.726 71.0619 167.789 71.6627 164.079C71.7879 163.352 71.9631 162.599 72.2385 161.923C72.5389 161.095 73.8157 159.115 75.0173 159.691C76.1188 160.218 76.3441 164.48 76.3441 165.282C76.3942 172.703 70.386 178.595 62.9758 178.395C55.2402 178.194 50.0832 171.174 50.6339 163.753C50.8592 160.819 46.2779 160.819 46.0526 163.753Z" fill="#24323D"/>
<path d="M50.0272 338.297C55.8602 343.812 65.1229 344.84 71.9573 340.478C75.6874 338.096 77.9405 334.335 79.4926 330.299C81.0447 326.162 82.9473 320.596 80.4689 316.409C78.7415 313.476 74.686 311.57 71.5317 313.375C68.3273 315.206 67.8767 319.342 68.878 322.552C71.3314 330.499 80.544 334.461 88.2796 334.059C99.2697 333.483 107.581 325.159 113.514 316.635C115.191 314.203 111.236 311.921 109.559 314.328C105.228 320.546 99.6201 326.663 92.1099 328.819C86.0015 330.574 77.9905 329.045 74.3355 323.404C73.6596 322.351 72.5831 320.446 72.9586 319.117C74.0601 315.18 76.3633 318.49 76.7889 319.869C77.1894 321.173 76.9891 322.376 76.7138 323.68C75.9627 327.441 74.4607 331.778 71.8071 334.636C66.9754 339.826 58.2885 339.801 53.2566 335.012C51.1287 333.006 47.8743 336.266 50.0272 338.297Z" fill="#24323D"/>
<path d="M241.166 158.585C237.011 151.966 237.586 142.765 243.57 137.375C248.727 132.736 261.069 130.58 265.224 137.826C266.626 140.283 265.6 143.617 262.245 142.89C259.642 142.314 258.465 139.631 258.265 137.199C257.939 133.388 259.391 129.427 261.319 126.218C265.224 119.749 272.109 115.311 279.619 114.584C282.523 114.309 282.548 109.721 279.619 109.996C270.431 110.849 262.145 115.938 257.364 123.886C253.358 130.53 250.629 143.592 260.167 147.027C263.522 148.231 267.552 147.453 269.505 144.269C271.959 140.308 270.106 135.469 266.801 132.661C259.767 126.744 248.576 127.697 241.592 133.087C233.155 139.606 231.653 152.041 237.211 160.892C238.788 163.399 242.743 161.092 241.166 158.585Z" fill="#24323D"/>
<path d="M127.916 39.5502C121.487 37.1727 117.649 30.0723 119.441 23.9357C121.232 17.7991 128.428 13.3975 135.272 14.2971C138.791 14.7469 141.989 16.3855 145.091 17.9919C149.025 20.016 152.959 22.0401 156.893 24.0963C147.074 20.9156 142.309 9.7991 144.484 0.449675C146.019 -6.26521 151.072 -12.7231 158.301 -14.4901C164.218 -15.9359 170.486 -14.1046 175.924 -11.5343C192.747 -3.59853 204.549 11.02 214.56 25.7349C211.425 21.7509 214.912 15.6786 219.965 14.0722C225.018 12.4979 230.584 14.1365 235.349 16.3533C246 21.269 254.891 30.6184 261 40L127.916 39.5502Z" fill="#F2F5EB"/>
</g>
<defs>
<clipPath id="clip0_333_1508">
<rect width="375" height="812" fill="white"/>
</clipPath>
</defs>
</svg>
